<svg width="33" height="143" viewBox="0 0 33 143" fill="none" xmlns="http://www.w3.org/2000/svg">
  <rect x="0" y="0" width="33" height="2" fill="black"/>
  <rect x="0" y="4" width="33" height="1" fill="black"/>
  <rect x="0" y="7" width="33" height="3" fill="black"/>
  <rect x="0" y="12" width="33" height="1" fill="black"/>
  <rect x="0" y="15" width="33" height="2" fill="black"/>
  <rect x="0" y="19" width="33" height="1" fill="black"/>
  <rect x="0" y="22" width="33" height="3" fill="black"/>
  <rect x="0" y="27" width="33" height="2" fill="black"/>
  <rect x="0" y="31" width="33" height="1" fill="black"/>
  <rect x="0" y="34" width="33" height="2" fill="black"/>
  <rect x="0" y="38" width="33" height="3" fill="black"/>
  <rect x="0" y="43" width="33" height="1" fill="black"/>
  <rect x="0" y="46" width="33" height="2" fill="black"/>
  <rect x="0" y="50" width="33" height="1" fill="black"/>
  <rect x="0" y="53" width="33" height="3" fill="black"/>
  <rect x="0" y="58" width="33" height="2" fill="black"/>
  <rect x="0" y="62" width="33" height="1" fill="black"/>
  <rect x="0" y="65" width="33" height="3" fill="black"/>
  <rect x="0" y="70" width="33" height="1" fill="black"/>
  <rect x="0" y="73" width="33" height="2" fill="black"/>
  <rect x="0" y="77" width="33" height="3" fill="black"/>
  <rect x="0" y="82" width="33" height="1" fill="black"/>
  <rect x="0" y="85" width="33" height="2" fill="black"/>
  <rect x="0" y="89" width="33" height="1" fill="black"/>
  <rect x="0" y="92" width="33" height="3" fill="black"/>
  <rect x="0" y="97" width="33" height="2" fill="black"/>
  <rect x="0" y="101" width="33" height="1" fill="black"/>
  <rect x="0" y="104" width="33" height="2" fill="black"/>
  <rect x="0" y="108" width="33" height="3" fill="black"/>
  <rect x="0" y="113" width="33" height="1" fill="black"/>
  <rect x="0" y="116" width="33" height="2" fill="black"/>
  <rect x="0" y="120" width="33" height="1" fill="black"/>
  <rect x="0" y="123" width="33" height="3" fill="black"/>
  <rect x="0" y="128" width="33" height="2" fill="black"/>
  <rect x="0" y="132" width="33" height="1" fill="black"/>
  <rect x="0" y="135" width="33" height="3" fill="black"/>
  <rect x="0" y="140" width="33" height="3" fill="black"/>
</svg>
