<svg width="25" height="25" viewBox="0 0 25 25" fill="none" xmlns="http://www.w3.org/2000/svg">
<path d="M22.6562 4.68754C22.9818 4.68754 23.2869 4.74858 23.5718 4.87065C23.8566 4.99272 24.1048 5.15955 24.3164 5.37113C24.528 5.58272 24.6948 5.83093 24.8169 6.11576C24.939 6.40059 25 6.70577 25 7.03129V21.0938C25 21.4193 24.939 21.7245 24.8169 22.0093C24.6948 22.2941 24.528 22.5424 24.3164 22.7539C24.1048 22.9655 23.8566 23.1324 23.5718 23.2544C23.2869 23.3765 22.9818 23.4375 22.6562 23.4375H2.34375C2.01823 23.4375 1.71305 23.3765 1.42822 23.2544C1.14339 23.1324 0.895182 22.9655 0.683594 22.7539C0.472005 22.5424 0.305176 22.2941 0.183105 22.0093C0.0610352 21.7245 0 21.4193 0 21.0938V7.03129C0 6.70577 0.0610352 6.40059 0.183105 6.11576C0.305176 5.83093 0.472005 5.58272 0.683594 5.37113C0.895182 5.15955 1.14339 4.99272 1.42822 4.87065C1.71305 4.74858 2.01823 4.68754 2.34375 4.68754H7.8125V3.12504C7.8125 2.90531 7.85319 2.70186 7.93457 2.51469C8.01595 2.32751 8.12581 2.16475 8.26416 2.02641C8.40251 1.88806 8.56934 1.77413 8.76465 1.68461C8.95996 1.59509 9.16341 1.5544 9.375 1.56254H15.625C15.8447 1.56254 16.0482 1.60323 16.2354 1.68461C16.4225 1.76599 16.5853 1.87585 16.7236 2.0142C16.862 2.15255 16.9759 2.31938 17.0654 2.51469C17.1549 2.71 17.1956 2.91345 17.1875 3.12504V4.68754H22.6562ZM9.375 4.68754H15.625V3.12504H9.375V4.68754ZM6.25 6.25004V21.875H18.75V6.25004H6.25ZM1.5625 21.0938C1.5625 21.3054 1.63981 21.4885 1.79443 21.6431C1.94906 21.7977 2.13216 21.875 2.34375 21.875H4.6875V6.25004H2.34375C2.13216 6.25004 1.94906 6.32735 1.79443 6.48197C1.63981 6.6366 1.5625 6.8197 1.5625 7.03129V21.0938ZM23.4375 7.03129C23.4375 6.8197 23.3602 6.6366 23.2056 6.48197C23.0509 6.32735 22.8678 6.25004 22.6562 6.25004H20.3125V21.875H22.6562C22.8678 21.875 23.0509 21.7977 23.2056 21.6431C23.3602 21.4885 23.4375 21.3054 23.4375 21.0938V7.03129Z" fill="black"/>
</svg>
