<svg width="25" height="23" viewBox="0 0 25 23" fill="none" xmlns="http://www.w3.org/2000/svg">
<g opacity="0.3">
<path fill-rule="evenodd" clip-rule="evenodd" d="M14.9627 0C15.9548 0 16.9062 0.362544 17.6077 1.00788C18.3093 1.65321 18.7034 2.52847 18.7034 3.4411H22.444C23.1054 3.4411 23.7397 3.6828 24.2074 4.11302C24.6751 4.54324 24.9378 5.12675 24.9378 5.73517V17.2055C24.9378 17.8139 24.6751 18.3974 24.2074 18.8277C23.7397 19.2579 23.1054 19.4996 22.444 19.4996H2.49378C1.83239 19.4996 1.19809 19.2579 0.730411 18.8277C0.262737 18.3974 0 17.8139 0 17.2055V5.73517C0 5.12675 0.262737 4.54324 0.730411 4.11302C1.19809 3.6828 1.83239 3.4411 2.49378 3.4411H6.23445C6.23445 2.52847 6.62856 1.65321 7.33007 1.00788C8.03158 0.362544 8.98304 0 9.97512 0H14.9627ZM7.48134 4.58814C7.17594 4.58818 6.88117 4.69132 6.65294 4.87801C6.42472 5.0647 6.27891 5.32195 6.24318 5.60097L6.23445 5.73517V17.2055C6.23481 17.4979 6.3565 17.7791 6.57466 17.9917C6.79283 18.2042 7.09101 18.3322 7.40827 18.3493C7.72553 18.3664 8.03793 18.2715 8.28164 18.0838C8.52535 17.8962 8.68197 17.63 8.71951 17.3397L8.72823 17.2055V5.73517C8.72823 5.43096 8.59686 5.13921 8.36303 4.9241C8.12919 4.70899 7.81204 4.58814 7.48134 4.58814ZM17.4565 4.58814C17.1258 4.58814 16.8086 4.70899 16.5748 4.9241C16.3409 5.13921 16.2096 5.43096 16.2096 5.73517V17.2055C16.2096 17.5097 16.3409 17.8015 16.5748 18.0166C16.8086 18.2317 17.1258 18.3526 17.4565 18.3526C17.7872 18.3526 18.1043 18.2317 18.3382 18.0166C18.572 17.8015 18.7034 17.5097 18.7034 17.2055V5.73517C18.7034 5.43096 18.572 5.13921 18.3382 4.9241C18.1043 4.70899 17.7872 4.58814 17.4565 4.58814ZM14.9627 2.29407H9.97512C9.66972 2.29411 9.37495 2.39725 9.14672 2.58394C8.9185 2.77063 8.77269 3.02788 8.73696 3.3069L8.72823 3.4411H16.2096C16.2095 3.16016 16.0974 2.88899 15.8945 2.67905C15.6915 2.4691 15.4119 2.33497 15.1086 2.3021L14.9627 2.29407Z" fill="black"/>
</g>
</svg>
