<svg width="15" height="15" viewBox="0 0 15 15" fill="none" xmlns="http://www.w3.org/2000/svg">
<path d="M12 4H3C2.17157 4 1.5 4.67157 1.5 5.5V11.5C1.5 12.3284 2.17157 13 3 13H12C12.8284 13 13.5 12.3284 13.5 11.5V5.5C13.5 4.67157 12.8284 4 12 4Z" stroke="#D95F2B" stroke-width="1.3"/>
<path d="M1.5 7H13.5" stroke="#D95F2B" stroke-width="1.3"/>
<path d="M5.0002 10.8002C5.44202 10.8002 5.8002 10.442 5.8002 10.0002C5.8002 9.55837 5.44202 9.2002 5.0002 9.2002C4.55837 9.2002 4.2002 9.55837 4.2002 10.0002C4.2002 10.442 4.55837 10.8002 5.0002 10.8002Z" fill="#D95F2B"/>
</svg>
