<svg width="23" height="23" viewBox="0 0 23 23" fill="none" xmlns="http://www.w3.org/2000/svg">
<path d="M11.1667 0.75C5.41354 0.75 0.75 5.41354 0.75 11.1667C0.75 16.9198 5.41354 21.5833 11.1667 21.5833C16.9198 21.5833 21.5833 16.9198 21.5833 11.1667C21.5833 5.41354 16.9198 0.75 11.1667 0.75Z" stroke="black" stroke-width="1.5" stroke-linecap="round" stroke-linejoin="round"/>
<path d="M3.11572 17.7769C3.11572 17.7769 5.4376 14.8123 11.1668 14.8123C16.8959 14.8123 19.2188 17.7769 19.2188 17.7769M11.1668 11.1665C11.9956 11.1665 12.7904 10.8373 13.3765 10.2512C13.9625 9.66516 14.2918 8.87031 14.2918 8.0415C14.2918 7.2127 13.9625 6.41785 13.3765 5.8318C12.7904 5.24574 11.9956 4.9165 11.1668 4.9165C10.338 4.9165 9.54311 5.24574 8.95706 5.8318C8.371 6.41785 8.04176 7.2127 8.04176 8.0415C8.04176 8.87031 8.371 9.66516 8.95706 10.2512C9.54311 10.8373 10.338 11.1665 11.1668 11.1665Z" stroke="black" stroke-width="1.5" stroke-linecap="round" stroke-linejoin="round"/>
</svg>
