<svg width="25" height="25" viewBox="0 0 25 25" fill="none" xmlns="http://www.w3.org/2000/svg">
<path d="M22.6145 21.1354L18.75 17.302C20.2501 15.4316 20.9765 13.0576 20.78 10.668C20.5834 8.2784 19.4788 6.05494 17.6932 4.4548C15.9076 2.85466 13.5768 1.99945 11.1801 2.06503C8.78333 2.13062 6.5028 3.11201 4.8074 4.8074C3.11201 6.5028 2.13062 8.78334 2.06503 11.1801C1.99945 13.5768 2.85466 15.9076 4.4548 17.6932C6.05494 19.4788 8.2784 20.5834 10.668 20.78C13.0576 20.9765 15.4316 20.2501 17.302 18.75L21.1354 22.5833C21.2322 22.6809 21.3474 22.7584 21.4744 22.8113C21.6013 22.8642 21.7374 22.8914 21.875 22.8914C22.0125 22.8914 22.1486 22.8642 22.2756 22.8113C22.4025 22.7584 22.5177 22.6809 22.6145 22.5833C22.8023 22.3891 22.9072 22.1295 22.9072 21.8593C22.9072 21.5892 22.8023 21.3296 22.6145 21.1354ZM11.4583 18.75C10.0161 18.75 8.60637 18.3223 7.40726 17.5211C6.20815 16.7199 5.27356 15.5811 4.72167 14.2487C4.16978 12.9163 4.02538 11.4502 4.30674 10.0358C4.58809 8.62132 5.28255 7.32207 6.30231 6.30231C7.32207 5.28255 8.62132 4.58809 10.0358 4.30674C11.4502 4.02538 12.9163 4.16978 14.2487 4.72167C15.5811 5.27356 16.7199 6.20815 17.5211 7.40726C18.3223 8.60637 18.75 10.0161 18.75 11.4583C18.75 13.3922 17.9817 15.2468 16.6143 16.6143C15.2468 17.9817 13.3922 18.75 11.4583 18.75Z" fill="black"/>
</svg>
